<svg width="32" height="32" viewBox="0 0 32 32" fill="none" xmlns="http://www.w3.org/2000/svg">
<path d="M21.3333 22.6667H9.33333V14C9.33333 10.6667 12 7.99999 15.3333 7.99999C18.6667 7.99999 21.3333 10.6667 21.3333 14V22.6667ZM24 21.3333V14C24 9.90666 21.1467 6.47999 17.3333 5.57332V4.66666C17.3333 4.13622 17.1226 3.62752 16.7475 3.25244C16.3725 2.87737 15.8638 2.66666 15.3333 2.66666C14.8029 2.66666 14.2942 2.87737 13.9191 3.25244C13.544 3.62752 13.3333 4.13622 13.3333 4.66666V5.57332C9.50667 6.47999 6.66667 9.90666 6.66667 14V21.3333L4 24V25.3333H26.6667V24L24 21.3333ZM15.3333 29.3333C16.0406 29.3333 16.7189 29.0524 17.219 28.5523C17.719 28.0522 18 27.3739 18 26.6667H12.6667C12.6667 27.3739 12.9476 28.0522 13.4477 28.5523C13.9478 29.0524 14.6261 29.3333 15.3333 29.3333Z" fill="#AAB3BC"/>
</svg>
