<svg width="58" height="48" viewBox="0 0 58 48" fill="none" xmlns="http://www.w3.org/2000/svg">
<mask id="mask0" mask-type="alpha" maskUnits="userSpaceOnUse" x="6" y="0" width="46" height="45">
<path d="M51.462 22.1499C51.462 9.91683 41.285 0 28.731 0C16.177 0 6 9.91683 6 22.1499C6 34.3829 16.177 44.2997 28.731 44.2997C41.285 44.2997 51.462 34.3829 51.462 22.1499Z" fill="#4956F5"/>
</mask>
<g mask="url(#mask0)">
<path d="M51.462 22.1499C51.462 9.91683 41.285 0 28.731 0C16.177 0 6 9.91683 6 22.1499C6 34.3829 16.177 44.2997 28.731 44.2997C41.285 44.2997 51.462 34.3829 51.462 22.1499Z" fill="#4956F5"/>
<path d="M17.3214 30.4074H14.6566V48H17.3214V30.4074Z" fill="white"/>
<path d="M17.2814 21.6954H0V19.0987H14.6166V9.12741H22.9508V11.7306H17.2814V21.6954Z" fill="white"/>
<path d="M15.989 33.1728C17.5564 33.1728 18.827 31.9347 18.827 30.4073C18.827 28.88 17.5564 27.6418 15.989 27.6418C14.4216 27.6418 13.1509 28.88 13.1509 30.4073C13.1509 31.9347 14.4216 33.1728 15.989 33.1728Z" fill="#4956F5"/>
<path d="M15.989 34.4711C15.1642 34.4711 14.3578 34.2328 13.672 33.7863C12.9862 33.3397 12.4517 32.705 12.136 31.9625C11.8203 31.2199 11.7378 30.4028 11.8987 29.6145C12.0596 28.8262 12.4568 28.1021 13.04 27.5337C13.6233 26.9654 14.3664 26.5784 15.1754 26.4216C15.9844 26.2648 16.8229 26.3452 17.585 26.6528C18.347 26.9604 18.9984 27.4813 19.4566 28.1496C19.9149 28.8179 20.1595 29.6036 20.1595 30.4073C20.1577 31.4846 19.7177 32.5172 18.936 33.279C18.1543 34.0407 17.0945 34.4694 15.989 34.4711ZM15.989 28.9402C15.6912 28.9402 15.4001 29.0262 15.1525 29.1874C14.9049 29.3486 14.7119 29.5778 14.598 29.8459C14.484 30.1139 14.4542 30.4089 14.5123 30.6935C14.5704 30.9781 14.7138 31.2396 14.9244 31.4447C15.1349 31.6499 15.4032 31.7896 15.6953 31.8463C15.9873 31.9029 16.2901 31.8738 16.5652 31.7628C16.8403 31.6517 17.0754 31.4637 17.2409 31.2224C17.4063 30.9811 17.4946 30.6975 17.4946 30.4073C17.4946 30.0182 17.336 29.645 17.0536 29.3699C16.7713 29.0948 16.3883 28.9402 15.989 28.9402Z" fill="white"/>
<path d="M15.989 23.1626C17.5564 23.1626 18.827 21.9244 18.827 20.3971C18.827 18.8697 17.5564 17.6316 15.989 17.6316C14.4216 17.6316 13.1509 18.8697 13.1509 20.3971C13.1509 21.9244 14.4216 23.1626 15.989 23.1626Z" fill="#4956F5"/>
<path d="M15.989 24.4609C15.1642 24.4609 14.3578 24.2226 13.672 23.776C12.9862 23.3295 12.4517 22.6948 12.136 21.9522C11.8203 21.2097 11.7378 20.3926 11.8987 19.6042C12.0596 18.8159 12.4568 18.0918 13.04 17.5235C13.6233 16.9552 14.3664 16.5681 15.1754 16.4113C15.9844 16.2545 16.8229 16.335 17.585 16.6426C18.347 16.9501 18.9984 17.471 19.4566 18.1393C19.9149 18.8076 20.1595 19.5933 20.1595 20.3971C20.1577 21.4743 19.7177 22.507 18.936 23.2687C18.1543 24.0305 17.0945 24.4592 15.989 24.4609ZM15.989 18.9299C15.6912 18.9299 15.4001 19.016 15.1525 19.1772C14.9049 19.3384 14.7119 19.5675 14.598 19.8356C14.484 20.1037 14.4542 20.3987 14.5123 20.6833C14.5704 20.9679 14.7138 21.2293 14.9244 21.4345C15.1349 21.6397 15.4032 21.7794 15.6953 21.836C15.9873 21.8926 16.2901 21.8636 16.5652 21.7525C16.8403 21.6415 17.0754 21.4534 17.2409 21.2122C17.4063 20.9709 17.4946 20.6872 17.4946 20.3971C17.4946 20.008 17.336 19.6348 17.0536 19.3596C16.7713 19.0845 16.3883 18.9299 15.989 18.9299Z" fill="white"/>
<path d="M22.9509 13.4444C24.5183 13.4444 25.7889 12.2063 25.7889 10.6789C25.7889 9.1516 24.5183 7.91345 22.9509 7.91345C21.3835 7.91345 20.1129 9.1516 20.1129 10.6789C20.1129 12.2063 21.3835 13.4444 22.9509 13.4444Z" fill="#4956F5"/>
<path d="M22.9509 14.7428C22.126 14.7428 21.3197 14.5044 20.6339 14.0579C19.948 13.6113 19.4135 12.9766 19.0979 12.2341C18.7822 11.4915 18.6996 10.6744 18.8605 9.8861C19.0214 9.0978 19.4186 8.37369 20.0019 7.80535C20.5851 7.23702 21.3283 6.84997 22.1372 6.69317C22.9462 6.53637 23.7848 6.61684 24.5468 6.92442C25.3089 7.23201 25.9602 7.75288 26.4185 8.42117C26.8767 9.08947 27.1213 9.87517 27.1213 10.6789C27.1196 11.7562 26.6796 12.7888 25.8979 13.5506C25.1161 14.3123 24.0564 14.741 22.9509 14.7428ZM22.9509 9.21178C22.6531 9.21178 22.362 9.29783 22.1144 9.45904C21.8668 9.62025 21.6738 9.84939 21.5598 10.1175C21.4459 10.3856 21.4161 10.6805 21.4742 10.9651C21.5323 11.2497 21.6757 11.5112 21.8862 11.7163C22.0968 11.9215 22.3651 12.0613 22.6571 12.1179C22.9492 12.1745 23.2519 12.1454 23.527 12.0344C23.8022 11.9233 24.0373 11.7353 24.2027 11.494C24.3682 11.2527 24.4565 10.9691 24.4565 10.6789C24.4547 10.2903 24.2955 9.91816 24.0136 9.64338C23.7316 9.36861 23.3496 9.21349 22.9509 9.21178Z" fill="white"/>
<path d="M43.3434 30.4074H40.6786V48H43.3434V30.4074Z" fill="white"/>
<path d="M58 21.6954H40.7186V11.7306H35.0425V9.12741H43.3835V19.0987H58V21.6954Z" fill="white"/>
<path d="M42.0111 33.1728C43.5785 33.1728 44.8491 31.9347 44.8491 30.4073C44.8491 28.88 43.5785 27.6418 42.0111 27.6418C40.4437 27.6418 39.173 28.88 39.173 30.4073C39.173 31.9347 40.4437 33.1728 42.0111 33.1728Z" fill="#4956F5"/>
<path d="M42.011 34.4712C41.1859 34.4725 40.379 34.2352 39.6923 33.7894C39.0055 33.3437 38.47 32.7095 38.1533 31.967C37.8366 31.2245 37.7531 30.4072 37.9132 29.6185C38.0734 28.8298 38.4701 28.1051 39.0531 27.5361C39.6361 26.9671 40.3791 26.5794 41.1883 26.4221C41.9975 26.2647 42.8364 26.3448 43.5988 26.6522C44.3612 26.9596 45.013 27.4805 45.4715 28.1489C45.9301 28.8173 46.1748 29.6033 46.1748 30.4073C46.1748 31.484 45.7364 32.5167 44.9557 33.2786C44.175 34.0405 43.116 34.4694 42.011 34.4712ZM42.011 28.9402C41.713 28.9389 41.4212 29.0239 41.1728 29.1843C40.9243 29.3447 40.7303 29.5734 40.6153 29.8414C40.5003 30.1093 40.4695 30.4045 40.5269 30.6896C40.5842 30.9746 40.7271 31.2366 40.9374 31.4424C41.1477 31.6483 41.4159 31.7886 41.7082 31.8458C42.0004 31.9029 42.3035 31.8742 42.579 31.7634C42.8545 31.6525 43.0901 31.4645 43.2558 31.2231C43.4215 30.9817 43.51 30.6978 43.51 30.4073C43.51 30.0193 43.3523 29.6472 43.0714 29.3722C42.7905 29.0972 42.4092 28.9419 42.011 28.9402Z" fill="white"/>
<path d="M42.0111 23.1626C43.5785 23.1626 44.8491 21.9244 44.8491 20.3971C44.8491 18.8697 43.5785 17.6316 42.0111 17.6316C40.4437 17.6316 39.173 18.8697 39.173 20.3971C39.173 21.9244 40.4437 23.1626 42.0111 23.1626Z" fill="#4956F5"/>
<path d="M42.011 24.4609C41.1859 24.4622 40.379 24.225 39.6923 23.7792C39.0055 23.3334 38.47 22.6992 38.1533 21.9568C37.8366 21.2143 37.7531 20.397 37.9132 19.6083C38.0734 18.8195 38.4701 18.0948 39.0531 17.5258C39.6361 16.9568 40.3791 16.5691 41.1883 16.4118C41.9975 16.2545 42.8364 16.3346 43.5988 16.642C44.3612 16.9494 45.013 17.4702 45.4715 18.1387C45.9301 18.8071 46.1748 19.5931 46.1748 20.3971C46.1748 21.4738 45.7364 22.5064 44.9557 23.2684C44.175 24.0303 43.116 24.4592 42.011 24.4609ZM42.011 18.9299C41.713 18.9287 41.4212 19.0136 41.1728 19.174C40.9243 19.3345 40.7303 19.5632 40.6153 19.8311C40.5003 20.0991 40.4695 20.3943 40.5269 20.6793C40.5842 20.9643 40.7271 21.2264 40.9374 21.4322C41.1477 21.638 41.4159 21.7784 41.7082 21.8355C42.0004 21.8927 42.3035 21.864 42.579 21.7532C42.8545 21.6423 43.0901 21.4543 43.2558 21.2129C43.4215 20.9714 43.51 20.6875 43.51 20.3971C43.51 20.0091 43.3523 19.6369 43.0714 19.362C42.7905 19.087 42.4092 18.9317 42.011 18.9299Z" fill="white"/>
<path d="M35.0424 13.4444C36.6099 13.4444 37.8805 12.2063 37.8805 10.6789C37.8805 9.1516 36.6099 7.91345 35.0424 7.91345C33.475 7.91345 32.2044 9.1516 32.2044 10.6789C32.2044 12.2063 33.475 13.4444 35.0424 13.4444Z" fill="#4956F5"/>
<path d="M35.0425 14.7428C34.2177 14.7428 33.4114 14.5044 32.7255 14.0579C32.0397 13.6113 31.5052 12.9766 31.1895 12.2341C30.8739 11.4915 30.7913 10.6744 30.9522 9.8861C31.1131 9.0978 31.5103 8.37369 32.0936 7.80535C32.6768 7.23702 33.4199 6.84997 34.2289 6.69317C35.0379 6.53637 35.8764 6.61684 36.6385 6.92442C37.4005 7.23201 38.0519 7.75288 38.5101 8.42117C38.9684 9.08947 39.213 9.87517 39.213 10.6789C39.213 11.7567 38.7736 12.7904 37.9915 13.5525C37.2094 14.3146 36.1486 14.7428 35.0425 14.7428ZM35.0425 9.21178C34.7447 9.21178 34.4536 9.29783 34.206 9.45904C33.9584 9.62025 33.7655 9.84939 33.6515 10.1175C33.5375 10.3856 33.5077 10.6805 33.5658 10.9651C33.6239 11.2497 33.7673 11.5112 33.9779 11.7163C34.1885 11.9215 34.4567 12.0613 34.7488 12.1179C35.0409 12.1745 35.3436 12.1454 35.6187 12.0344C35.8938 11.9233 36.129 11.7353 36.2944 11.494C36.4598 11.2527 36.5482 10.9691 36.5482 10.6789C36.5482 10.2898 36.3895 9.91664 36.1072 9.6415C35.8248 9.36636 35.4418 9.21178 35.0425 9.21178Z" fill="white"/>
</g>
</svg>
