<svg xmlns="http://www.w3.org/2000/svg">
<path d="M20 17.3333H22V21.0933L25.2533 22.9733L24.2533 24.7067L20 22.2533V17.3333ZM25.3333 10.6667H6.66667V25.3333H12.8933C12.32 24.12 12 22.76 12 21.3333C12 18.858 12.9833 16.484 14.7337 14.7337C16.484 12.9833 18.858 12 21.3333 12C22.76 12 24.12 12.32 25.3333 12.8933V10.6667ZM6.66667 28C5.18667 28 4 26.8 4 25.3333V6.66667C4 5.18667 5.18667 4 6.66667 4H8V1.33333H10.6667V4H21.3333V1.33333H24V4H25.3333C26.0406 4 26.7189 4.28095 27.219 4.78105C27.719 5.28115 28 5.95942 28 6.66667V14.8C29.6533 16.48 30.6667 18.7867 30.6667 21.3333C30.6667 23.8087 29.6833 26.1827 27.933 27.933C26.1827 29.6833 23.8087 30.6667 21.3333 30.6667C18.7867 30.6667 16.48 29.6533 14.8 28H6.66667ZM21.3333 14.8667C19.6183 14.8667 17.9734 15.548 16.7607 16.7607C15.548 17.9734 14.8667 19.6183 14.8667 21.3333C14.8667 24.9067 17.76 27.8 21.3333 27.8C22.1825 27.8 23.0234 27.6327 23.808 27.3078C24.5926 26.9828 25.3055 26.5064 25.906 25.906C26.5064 25.3055 26.9828 24.5926 27.3078 23.808C27.6327 23.0234 27.8 22.1825 27.8 21.3333C27.8 17.76 24.9067 14.8667 21.3333 14.8667Z"/>
</svg>
