<svg xmlns="http://www.w3.org/2000/svg">
<path d="M25.3334 22.6667H14.6667V21.3333C14.6667 19.56 18.2267 18.6667 20 18.6667C21.7734 18.6667 25.3334 19.56 25.3334 21.3333V22.6667ZM20 12C20.7073 12 21.3855 12.281 21.8856 12.7811C22.3857 13.2811 22.6667 13.9594 22.6667 14.6667C22.6667 15.3739 22.3857 16.0522 21.8856 16.5523C21.3855 17.0524 20.7073 17.3333 20 17.3333C19.2928 17.3333 18.6145 17.0524 18.1144 16.5523C17.6143 16.0522 17.3334 15.3739 17.3334 14.6667C17.3334 13.1867 18.5334 12 20 12ZM26.6667 8C27.3739 8 28.0522 8.28095 28.5523 8.78105C29.0524 9.28115 29.3334 9.95942 29.3334 10.6667V24C29.3334 24.7072 29.0524 25.3855 28.5523 25.8856C28.0522 26.3857 27.3739 26.6667 26.6667 26.6667H5.33335C4.62611 26.6667 3.94783 26.3857 3.44774 25.8856C2.94764 25.3855 2.66669 24.7072 2.66669 24V8C2.66669 7.29276 2.94764 6.61448 3.44774 6.11438C3.94783 5.61429 4.62611 5.33334 5.33335 5.33334H13.3334L16 8H26.6667ZM26.6667 24V10.6667H14.8934L12.2267 8H5.33335V24H26.6667Z"/>
</svg>
