<svg xmlns="http://www.w3.org/2000/svg">
<path d="M9.33331 6.66667H28V9.33333H9.33331V6.66667ZM9.33331 17.3333V14.6667H28V17.3333H9.33331ZM5.33331 6C5.86375 6 6.37245 6.21071 6.74753 6.58579C7.1226 6.96086 7.33331 7.46957 7.33331 8C7.33331 8.53043 7.1226 9.03914 6.74753 9.41421C6.37245 9.78929 5.86375 10 5.33331 10C4.80288 10 4.29417 9.78929 3.9191 9.41421C3.54403 9.03914 3.33331 8.53043 3.33331 8C3.33331 7.46957 3.54403 6.96086 3.9191 6.58579C4.29417 6.21071 4.80288 6 5.33331 6ZM5.33331 14C5.86375 14 6.37245 14.2107 6.74753 14.5858C7.1226 14.9609 7.33331 15.4696 7.33331 16C7.33331 16.5304 7.1226 17.0391 6.74753 17.4142C6.37245 17.7893 5.86375 18 5.33331 18C4.80288 18 4.29417 17.7893 3.9191 17.4142C3.54403 17.0391 3.33331 16.5304 3.33331 16C3.33331 15.4696 3.54403 14.9609 3.9191 14.5858C4.29417 14.2107 4.80288 14 5.33331 14ZM9.33331 25.3333V22.6667H28V25.3333H9.33331ZM5.33331 22C5.86375 22 6.37245 22.2107 6.74753 22.5858C7.1226 22.9609 7.33331 23.4696 7.33331 24C7.33331 24.5304 7.1226 25.0391 6.74753 25.4142C6.37245 25.7893 5.86375 26 5.33331 26C4.80288 26 4.29417 25.7893 3.9191 25.4142C3.54403 25.0391 3.33331 24.5304 3.33331 24C3.33331 23.4696 3.54403 22.9609 3.9191 22.5858C4.29417 22.2107 4.80288 22 5.33331 22Z"/>
</svg>
